<svg width="302" height="360" viewBox="0 0 302 360" fill="none" xmlns="http://www.w3.org/2000/svg">
<path d="M189.985 126.81C189.985 126.81 211.057 136.649 206.441 183.759C201.826 230.869 147.208 319.987 140.286 328.898C133.363 337.808 106.054 364.12 70.2779 359.449C34.5019 354.778 16.0761 330.553 16.0761 330.553M26.8332 223.355C18.2275 213.918 -14.9285 172.139 25.6534 127.738C71.8133 77.2308 111.588 140.076 111.588 140.076M133.016 124.866C132.938 114.568 135.054 94.1139 151.502 83.2409M151.502 83.2409C151.979 82.925 152.465 82.6188 152.968 82.322C177.207 67.8981 202.208 80.2068 211.82 88.2658C221.441 96.3344 227.21 103.733 230.671 108.098C234.132 112.462 249.131 142.162 254.519 148.527C259.897 154.892 294.901 185.453 300.67 217.277C306.439 249.111 291.83 265.66 287.597 274.571C283.363 283.482 266.829 303.007 249.131 312.339C231.434 321.681 202.59 321.681 182.975 312.339C171.759 307.008 164.81 300.145 160.915 295.245M151.502 83.2409C133.267 45.1853 146.427 0 146.427 0M144.415 34.38C144.415 34.38 164.125 12.3086 198.356 18.2524C232.588 24.1961 245.427 49.6557 245.427 49.6557C245.427 49.6557 231.998 46.6886 207.873 59.8396C183.748 72.9905 161.357 59.4184 156.777 56.8725C152.205 54.3265 145.3 44.9562 147.408 41.367C149.516 37.7778 161.435 30.1399 184.511 32.6858C207.587 35.2318 223.358 44.9945 223.358 44.9945M164.506 36.495C164.506 36.495 168.74 44.1329 181.813 47.9518C194.886 51.7708 203.353 50.9189 203.353 50.9189M184.511 32.6766C184.511 32.6766 194.895 24.1868 203.362 25.0386M184.121 120.952C201.757 135.041 199.51 158.3 195.658 173.575C191.807 188.851 167.196 241.904 160.655 255.477C154.114 269.058 124.115 314.885 116.42 322.533C108.726 330.171 73.7218 369.642 29.106 341.206C-15.5098 312.77 3.73152 262.693 6.42078 253.782C9.11005 244.872 34.1116 213.468 45.2677 201.16C56.4238 188.851 101.812 147.685 115.275 137.08C128.739 126.475 161.817 103.121 184.121 120.952ZM109.116 210.07C119.5 218.981 138.733 238.507 119.118 272.877C99.5041 307.247 69.1154 291.129 61.0389 285.607C52.9624 280.084 26.0351 252.079 61.0389 216.856C82.1453 195.618 109.116 210.07 109.116 210.07Z" stroke="#A26C6C" stroke-width="2" stroke-miterlimit="10"/>
</svg>
