<svg width="36" height="18" viewBox="0 0 36 18" fill="none" xmlns="http://www.w3.org/2000/svg">
<path fill-rule="evenodd" clip-rule="evenodd" d="M32.3407 3.45386C32.0875 3.45171 31.8388 3.52631 31.6231 3.66914C31.4073 3.81196 31.2332 4.01725 31.1207 4.26156L28.8807 9.79694L28.0707 4.26156C28.0407 4.0225 27.9262 3.80511 27.7511 3.65466C27.576 3.5042 27.3538 3.43228 27.1307 3.45386H24.2907L26.7207 12.6508C26.756 12.8428 26.756 13.0403 26.7207 13.2323C26.6474 13.6132 26.458 13.9568 26.1826 14.2086C25.9072 14.4603 25.5616 14.6056 25.2007 14.6216H23.6307C23.2207 14.6216 22.9607 14.8908 22.8307 15.5046L22.4707 17.7877H25.2807C26.1839 17.7573 27.0625 17.4638 27.8232 16.9386C28.5839 16.4133 29.1981 15.6758 29.6007 14.8046L35.2207 3.45386H32.3407Z" fill="#323E48"/>
<path fill-rule="evenodd" clip-rule="evenodd" d="M4.74027 0.707703C5.58027 0.707703 5.99027 1.06309 5.84027 1.97847L5.60027 3.45386H7.53027L7.10027 6.04924H5.17027L4.65027 9.28001C4.46027 10.3569 5.49027 10.5508 6.08027 10.5508H6.37027L5.90027 13.4154C5.75027 13.4154 5.60027 13.4154 5.28027 13.4154C3.82027 13.4154 1.05027 12.9954 1.59027 9.6677L2.19027 6.01693H0.780273L1.21027 3.42155H2.60027L3.05027 0.707703H4.74027Z" fill="#323E48"/>
<path fill-rule="evenodd" clip-rule="evenodd" d="M21.0006 3.61539L20.5106 6.64154C20.869 6.83902 21.1591 7.15519 21.3382 7.54352C21.5172 7.93185 21.5758 8.37183 21.5053 8.79869C21.4347 9.22555 21.2388 9.61676 20.9463 9.91472C20.6539 10.2127 20.2803 10.4017 19.8806 10.4538L19.3906 13.48H19.6506C20.773 13.4791 21.8577 13.0438 22.7069 12.2536C23.5562 11.4633 24.1135 10.3707 24.2771 9.17486C24.4407 7.97907 24.1999 6.75976 23.5984 5.73924C22.997 4.71872 22.075 3.96496 21.0006 3.61539Z" fill="#00ADBB"/>
<path fill-rule="evenodd" clip-rule="evenodd" d="M18.7501 10.2062C18.3919 10.0094 18.1017 9.69412 17.9222 9.30665C17.7427 8.91919 17.6832 8.47994 17.7526 8.05341C17.822 7.62688 18.0165 7.23553 18.3076 6.93684C18.5987 6.63815 18.9711 6.44784 19.3701 6.39386L19.8701 3.36771H19.6001C18.481 3.37727 17.402 3.81745 16.5579 4.60876C15.7138 5.40007 15.1603 6.49034 14.9973 7.68268C14.8343 8.87501 15.0726 10.0908 15.6691 11.1105C16.2656 12.1302 17.181 12.8866 18.2501 13.2431L18.7501 10.2062Z" fill="#00ADBB"/>
<path fill-rule="evenodd" clip-rule="evenodd" d="M8.64 3.45386H10.3C11.14 3.45386 11.55 3.80925 11.4 4.72463L11.22 5.80156C11.5231 5.11113 11.9912 4.5199 12.5764 4.08844C13.1615 3.65698 13.8427 3.40081 14.55 3.34617C14.6665 3.33655 14.7835 3.33655 14.9 3.34617L14.37 6.57694C14.1662 6.53072 13.9583 6.50905 13.75 6.51232C13.1986 6.49425 12.6541 6.64832 12.1821 6.95596C11.7101 7.2636 11.3309 7.71167 11.09 8.24617C10.9092 8.67506 10.7815 9.12764 10.71 9.59233L10.11 13.3077H7L8.64 3.45386Z" fill="#323E48"/>
</svg>
