<svg width="40" height="10" viewBox="0 0 40 10" fill="none" xmlns="http://www.w3.org/2000/svg">
<path d="M15.177 0.50042L9.94239 9.54617H6.51852L3.95062 2.31434C3.78601 1.86086 3.65432 1.71766 3.19342 1.52672C2.17914 1.17281 1.10566 0.916066 0 0.762961L0.0658436 0.50042H5.56379C6.30694 0.502851 6.93632 0.898295 7.04527 1.43125L8.39506 6.65821L11.7531 0.50042H15.177ZM28.5761 6.58661C28.5761 4.19987 24.0329 4.05666 24.0658 3.0065C24.0658 2.67235 24.4938 2.33821 25.4486 2.24274C26.5439 2.16859 27.6467 2.30871 28.642 2.64849L29.2016 0.739094C28.235 0.470007 27.2083 0.332458 26.1728 0.333348C22.9794 0.333348 20.7407 1.57445 20.7078 3.31677C20.6749 4.62948 22.321 5.34551 23.5391 5.77512C24.7572 6.20473 25.2181 6.51501 25.2181 6.89689C25.2181 7.49357 24.1975 7.77998 23.2757 7.77998C22.1173 7.8032 20.9708 7.60568 19.9506 7.20716L19.358 9.18816C20.498 9.51988 21.7183 9.68221 22.9465 9.66551C26.3374 9.68937 28.5432 8.47214 28.5761 6.58661ZM37.0041 9.54617H40L37.3992 0.50042H34.6337C34.0268 0.495149 33.4777 0.76054 33.251 1.16871L28.3786 9.54617H31.7695L32.428 8.18573H36.5761L37.0041 9.54617ZM33.3827 6.34794L35.0947 2.95876L36.0823 6.34794H33.3827ZM19.786 0.50042L17.1193 9.54617H13.893L16.5597 0.50042H19.786Z" fill="#1A1F71"/>
</svg>
