<svg width="43" height="43" viewBox="0 0 43 43" fill="none" xmlns="http://www.w3.org/2000/svg">
<path d="M14.1094 7.39062L14.8659 9.23828C15.3376 10.3872 15.9785 13.2588 15.8307 14.6133C13.9992 15.742 12.8758 16.8439 12.0091 17.763C10.9502 16.9071 8.85531 15.4531 5.375 15.4531H4.03125V16.7969C4.03125 19.3688 4.95978 21.4583 5.29169 22.1719C4.95575 22.88 4.03125 24.8957 4.03125 27.5469V28.8906H5.375C8.82844 28.8906 10.9489 27.4313 12.0104 26.5807C13.6001 28.2188 15.867 29.9455 18.7292 31.2422C18.6029 32.0767 18.5034 33.2417 18.8542 34.6016L19.1068 35.6094H20.1562C21.8144 35.6094 23.2428 34.7857 24.3971 34.056C25.3418 33.4567 25.7987 33.0374 26.0352 32.8372C31.3792 32.6491 34.791 29.7668 36.6172 26.9167C38.5065 23.9725 38.9688 21.0378 38.9688 21.0378L39.0104 20.7018L38.8854 20.3659C38.8854 20.3659 35.8083 11.915 27.4636 11.5052C26.5767 10.4302 25.3364 9.53794 23.6003 8.81769C21.547 7.96844 18.9643 7.39062 16.125 7.39062H14.1094ZM18.0143 10.2461C19.7101 10.4342 21.2957 10.7769 22.5495 11.2956C24.2668 12.0051 25.4627 13.0223 25.7409 13.4792L26.1198 14.1094H26.875C33.5884 14.1094 36.0031 20.4653 36.1979 20.9961C36.1039 21.4893 35.7142 23.3638 34.3503 25.4896C32.7902 27.9191 30.2653 30.2344 25.5312 30.2344H25.0273L24.6497 30.5703C24.6497 30.5703 23.9403 31.175 22.9701 31.7878C22.4594 32.1089 22.0254 32.1667 21.5 32.3763C21.5537 31.7622 21.5 30.8646 21.5 30.8646L21.7943 29.6888L20.7018 29.3099C17.3747 28.04 14.5448 25.6468 13.1016 23.9779L12.1771 22.8854L11.1693 23.8932C11.1693 23.8932 9.37937 25.1483 7.05469 25.7409C7.40138 24.166 7.93619 22.7604 7.93619 22.7604L8.23047 22.1719L7.93619 21.5833C7.93619 21.5833 7.35434 20.0407 7.01303 18.3919C9.48956 18.9388 11.1693 20.4505 11.1693 20.4505L12.1771 21.4583L13.1016 20.3659C14.3042 19.0073 17.5427 15.6211 22.2982 14.9909L21.9193 12.345C20.6333 12.5143 19.5112 12.8866 18.4349 13.3125C18.3664 12.1838 18.3086 11.2122 18.0143 10.2461ZM30.2344 19.4844C29.6998 19.4844 29.1871 19.6967 28.8091 20.0747C28.4311 20.4527 28.2188 20.9654 28.2188 21.5C28.2188 22.0346 28.4311 22.5473 28.8091 22.9253C29.1871 23.3033 29.6998 23.5156 30.2344 23.5156C30.769 23.5156 31.2816 23.3033 31.6596 22.9253C32.0376 22.5473 32.25 22.0346 32.25 21.5C32.25 20.9654 32.0376 20.4527 31.6596 20.0747C31.2816 19.6967 30.769 19.4844 30.2344 19.4844Z" fill="#442222"/>
</svg>
