<svg width="44" height="44" viewBox="0 0 44 44" fill="none" xmlns="http://www.w3.org/2000/svg">
<path d="M31.453 4.33948L29.9061 6.61648C29.9061 6.61648 30.749 7.27235 31.1519 8.20735C31.5011 9.02823 31.7541 9.99073 30.4218 11.6009L29.2186 12.8054C25.1693 9.35685 21.0539 9.1946 21.0539 9.1946H20.2811L19.8508 9.8821C19.8508 9.8821 16.3445 15.8441 12.9758 22C11.2914 25.0772 9.62488 28.2095 8.46713 30.6804C7.8855 31.9151 7.429 32.9904 7.13338 33.8594C6.989 34.2939 6.88588 34.6596 6.83363 35.0625C6.77863 35.4654 6.62875 36.0181 7.30525 36.696C7.98313 37.3725 8.53588 37.2212 8.93875 37.1676C9.34163 37.114 9.70738 37.0122 10.1419 36.8679C11.0123 36.5722 12.0861 36.1157 13.3223 35.5341C15.789 34.375 18.9213 32.7112 21.9999 31.0255C28.1503 27.6512 34.1178 24.1505 34.1178 24.1505L34.8053 23.7201V22.9034C34.8053 22.9034 34.6224 18.8375 31.1959 14.7826L31.6675 14.267C31.7858 14.1487 31.893 14.0676 32.0113 13.9659L32.355 13.6647C33.9775 12.419 35.5134 12.4685 36.8678 12.8067C37.8073 13.0441 38.6955 13.4514 39.4885 14.0085L41.2073 11.8607C41.2073 11.8607 39.681 10.6851 37.5113 10.142C37.0315 10.0292 36.543 9.95742 36.051 9.92748L38.8436 7.13348L36.8664 5.1576L33.9885 8.03685C33.919 7.71251 33.8182 7.39569 33.6874 7.09085C32.9133 5.28685 31.453 4.34085 31.453 4.34085V4.33948ZM21.7414 12.1165C22.6448 12.2031 25.2284 12.5785 28.3166 15.6832C31.4104 18.799 31.7913 21.362 31.882 22.2571C31.6565 22.3919 30.4809 23.1014 29.5624 23.6321C29.0753 22.5518 28.4698 21.529 27.757 20.5824L25.5666 22.2585C26.5333 23.5469 26.9306 24.4337 27.1561 25.0085C25.0027 26.2285 22.8397 27.4316 20.6675 28.6179C20.5341 28.6866 20.4159 28.7622 20.2811 28.8324C20.0281 28.0802 19.6156 27.1727 18.8635 26.125L16.6291 27.7145C17.3056 28.6605 17.6384 29.4387 17.7896 29.9489C17.8158 30.0355 17.8158 30.0561 17.8309 30.1207C15.7753 31.2221 13.7884 32.2795 12.1604 33.0426C11.312 33.4414 10.7098 33.6614 10.0979 33.902C10.3399 33.2901 10.5599 32.6879 10.9573 31.8395C12.0683 29.4717 13.7128 26.3835 15.382 23.3324C16.1878 21.8611 16.801 20.7597 17.5311 19.4645C17.9711 19.8509 18.5404 20.372 19.1646 21.1832L21.3124 19.5071C20.615 18.5815 19.8069 17.7448 18.9061 17.0156C20.3458 14.4911 21.4953 12.5414 21.7428 12.1165H21.7414Z" fill="white"/>
</svg>
