<svg width="35" height="21" viewBox="0 0 35 21" fill="none" xmlns="http://www.w3.org/2000/svg">
<path d="M10.0781 0L10.8347 1.36492C11.3063 2.21365 11.9473 4.33499 11.7995 5.3356C9.96794 6.16945 8.84456 6.98344 7.97784 7.66242C6.91897 7.03009 4.82406 5.95602 1.34375 5.95602H0V6.94869C0 8.84866 0.928531 10.3923 1.26044 10.9194C0.9245 11.4425 0 12.9315 0 14.8901V15.8827H1.34375C4.79719 15.8827 6.91762 14.8047 7.97919 14.1763C9.56884 15.3864 11.8357 16.662 14.6979 17.6199C14.5716 18.2363 14.4722 19.097 14.8229 20.1016L15.0755 20.8461H16.125C17.7832 20.8461 19.2116 20.2376 20.3659 19.6986C21.3105 19.2558 21.7674 18.9461 22.0039 18.7982C27.348 18.6592 30.7598 16.5299 32.5859 14.4245C34.4753 12.2496 34.9375 10.0816 34.9375 10.0816L34.9792 9.83339L34.8542 9.58523C34.8542 9.58523 31.777 3.34232 23.4323 3.03956C22.5454 2.24542 21.3052 1.58629 19.569 1.05422C17.5158 0.426848 14.9331 0 12.0938 0H10.0781ZM13.9831 2.10942C15.6789 2.2484 17.2645 2.50153 18.5182 2.8847C20.2355 3.40883 21.4315 4.16028 21.7096 4.49779L22.0886 4.96335H22.8438C29.5571 4.96335 31.9718 9.65868 32.1667 10.0508C32.0726 10.4151 31.6829 11.7999 30.319 13.3703C28.7589 15.165 26.234 16.8754 21.5 16.8754H20.9961L20.6185 17.1236C20.6185 17.1236 19.909 17.5703 18.9388 18.0229C18.4282 18.2602 17.9942 18.3029 17.4688 18.4577C17.5225 18.0041 17.4688 17.341 17.4688 17.341L17.763 16.4724L16.6706 16.1924C13.3434 15.2544 10.5135 13.4864 9.07031 12.2535L8.14581 11.4465L7.138 12.191C7.138 12.191 5.34812 13.1181 3.02344 13.5559C3.37013 12.3925 3.90494 11.3542 3.90494 11.3542L4.19922 10.9194L3.90494 10.4846C3.90494 10.4846 3.32309 9.345 2.98178 8.12699C5.45831 8.53101 7.138 9.64776 7.138 9.64776L8.14581 10.3923L9.07031 9.58523C10.273 8.58164 13.5114 6.08011 18.2669 5.61454L17.888 3.65998C16.602 3.78505 15.48 4.06002 14.4037 4.3747C14.3351 3.54085 14.2773 2.82315 13.9831 2.10942ZM26.2031 8.93403C25.6685 8.93403 25.1559 9.09091 24.7779 9.37015C24.3999 9.6494 24.1875 10.0281 24.1875 10.423C24.1875 10.8179 24.3999 11.1967 24.7779 11.4759C25.1559 11.7552 25.6685 11.912 26.2031 11.912C26.7377 11.912 27.2504 11.7552 27.6284 11.4759C28.0064 11.1967 28.2188 10.8179 28.2188 10.423C28.2188 10.0281 28.0064 9.6494 27.6284 9.37015C27.2504 9.09091 26.7377 8.93403 26.2031 8.93403Z" fill="#442222"/>
</svg>
